<svg xmlns="http://www.w3.org/2000/svg" viewBox="0 0 128 128" role="img" aria-label="Cuu ho ngap lu">
  <rect width="128" height="128" rx="28" fill="#ffffff"/>
  <circle cx="64" cy="50" r="39" fill="#fff5ec" stroke="#073f78" stroke-width="8"/>
  <path d="M34 55c22-17 35 15 57 0 15-10 25-4 33 3" fill="none" stroke="#0d70b7" stroke-width="10" stroke-linecap="round"/>
  <path d="M21 75c26-17 43 16 70 0 17-10 29-4 39 4" fill="none" stroke="#073f78" stroke-width="10" stroke-linecap="round"/>
  <path d="M40 35h48M64 20v46" stroke="#f36a17" stroke-width="8" stroke-linecap="round"/>
  <path d="M64 74l31 14v20c0 18-12 31-31 39-19-8-31-21-31-39V88z" fill="#ffffff" stroke="#073f78" stroke-width="7" stroke-linejoin="round"/>
  <path d="M64 86c-10 0-18 8-18 18 0 14 18 31 18 31s18-17 18-31c0-10-8-18-18-18z" fill="#1678bf"/>
  <circle cx="64" cy="104" r="6" fill="#ffffff"/>
</svg>
